<svg width="46" height="46" viewBox="0 0 46 46" fill="none" xmlns="http://www.w3.org/2000/svg">
<path fill-rule="evenodd" clip-rule="evenodd" d="M18.4067 44.7583C22.0621 45.8311 25.7465 46.2561 28.9195 45.8461C39.6242 44.4628 45.4768 30.5826 46 19.6948L18.4067 44.7583V44.7583ZM6.36298 38.4261C7.12763 39.0736 7.94071 39.6876 8.79422 40.265L44.005 8.2813C43.5611 7.27519 43.0699 6.37304 42.536 5.56829L6.36298 38.4261V38.4261ZM22.0438 2.30334C12.0683 6.41499 -1.21982 19.1052 0.0898066 28.3733C0.189726 29.0796 0.357529 29.772 0.580631 30.453L33.9719 0.122937C33.3358 0.0401278 32.6844 0.000364799 32.0205 0C28.9119 0 25.5173 0.871869 22.0438 2.30334V2.30334ZM11.8379 42.0887C12.7925 42.5936 13.7742 43.055 14.773 43.4709L45.8909 15.2059C45.783 14.1929 45.6217 13.2316 45.3955 12.3506C45.3429 12.1467 45.2853 11.9548 45.2304 11.7567L11.8379 42.0887V42.0887ZM2.1126 33.6498C2.63622 34.4812 3.2426 35.2841 3.92373 36.0534L40.3305 2.98369C39.5365 2.27124 38.6857 1.69413 37.783 1.24907L2.1126 33.6498Z" fill="#ACF709"/>
<path fill-rule="evenodd" clip-rule="evenodd" d="M18.4067 44.7583C22.0621 45.8311 25.7465 46.2561 28.9195 45.8461C39.6242 44.4628 45.4768 30.5826 46 19.6948L18.4067 44.7583V44.7583ZM6.36298 38.4261C7.12763 39.0736 7.94071 39.6876 8.79422 40.265L44.005 8.2813C43.5611 7.27519 43.0699 6.37304 42.536 5.56829L6.36298 38.4261V38.4261ZM22.0438 2.30334C12.0683 6.41499 -1.21982 19.1052 0.0898066 28.3733C0.189726 29.0796 0.357529 29.772 0.580631 30.453L33.9719 0.122937C33.3358 0.0401278 32.6844 0.000364799 32.0205 0C28.9119 0 25.5173 0.871869 22.0438 2.30334V2.30334ZM11.8379 42.0887C12.7925 42.5936 13.7742 43.055 14.773 43.4709L45.8909 15.2059C45.783 14.1929 45.6217 13.2316 45.3955 12.3506C45.3429 12.1467 45.2853 11.9548 45.2304 11.7567L11.8379 42.0887V42.0887ZM2.1126 33.6498C2.63622 34.4812 3.2426 35.2841 3.92373 36.0534L40.3305 2.98369C39.5365 2.27124 38.6857 1.69413 37.783 1.24907L2.1126 33.6498Z" fill="url(#paint0_radial_4342_4459)"/>
<path fill-rule="evenodd" clip-rule="evenodd" d="M18.4067 44.7583C22.0621 45.8311 25.7465 46.2561 28.9195 45.8461C39.6242 44.4628 45.4768 30.5826 46 19.6948L18.4067 44.7583V44.7583ZM6.36298 38.4261C7.12763 39.0736 7.94071 39.6876 8.79422 40.265L44.005 8.2813C43.5611 7.27519 43.0699 6.37304 42.536 5.56829L6.36298 38.4261V38.4261ZM22.0438 2.30334C12.0683 6.41499 -1.21982 19.1052 0.0898066 28.3733C0.189726 29.0796 0.357529 29.772 0.580631 30.453L33.9719 0.122937C33.3358 0.0401278 32.6844 0.000364799 32.0205 0C28.9119 0 25.5173 0.871869 22.0438 2.30334V2.30334ZM11.8379 42.0887C12.7925 42.5936 13.7742 43.055 14.773 43.4709L45.8909 15.2059C45.783 14.1929 45.6217 13.2316 45.3955 12.3506C45.3429 12.1467 45.2853 11.9548 45.2304 11.7567L11.8379 42.0887V42.0887ZM2.1126 33.6498C2.63622 34.4812 3.2426 35.2841 3.92373 36.0534L40.3305 2.98369C39.5365 2.27124 38.6857 1.69413 37.783 1.24907L2.1126 33.6498Z" fill="url(#paint1_linear_4342_4459)" style="mix-blend-mode:difference"/>
<path fill-rule="evenodd" clip-rule="evenodd" d="M18.4067 44.7583C22.0621 45.8311 25.7465 46.2561 28.9195 45.8461C39.6242 44.4628 45.4768 30.5826 46 19.6948L18.4067 44.7583V44.7583ZM6.36298 38.4261C7.12763 39.0736 7.94071 39.6876 8.79422 40.265L44.005 8.2813C43.5611 7.27519 43.0699 6.37304 42.536 5.56829L6.36298 38.4261V38.4261ZM22.0438 2.30334C12.0683 6.41499 -1.21982 19.1052 0.0898066 28.3733C0.189726 29.0796 0.357529 29.772 0.580631 30.453L33.9719 0.122937C33.3358 0.0401278 32.6844 0.000364799 32.0205 0C28.9119 0 25.5173 0.871869 22.0438 2.30334V2.30334ZM11.8379 42.0887C12.7925 42.5936 13.7742 43.055 14.773 43.4709L45.8909 15.2059C45.783 14.1929 45.6217 13.2316 45.3955 12.3506C45.3429 12.1467 45.2853 11.9548 45.2304 11.7567L11.8379 42.0887V42.0887ZM2.1126 33.6498C2.63622 34.4812 3.2426 35.2841 3.92373 36.0534L40.3305 2.98369C39.5365 2.27124 38.6857 1.69413 37.783 1.24907L2.1126 33.6498Z" fill="url(#paint2_linear_4342_4459)" style="mix-blend-mode:screen"/>
<path fill-rule="evenodd" clip-rule="evenodd" d="M18.4067 44.7583C22.0621 45.8311 25.7465 46.2561 28.9195 45.8461C39.6242 44.4628 45.4768 30.5826 46 19.6948L18.4067 44.7583V44.7583ZM6.36298 38.4261C7.12763 39.0736 7.94071 39.6876 8.79422 40.265L44.005 8.2813C43.5611 7.27519 43.0699 6.37304 42.536 5.56829L6.36298 38.4261V38.4261ZM22.0438 2.30334C12.0683 6.41499 -1.21982 19.1052 0.0898066 28.3733C0.189726 29.0796 0.357529 29.772 0.580631 30.453L33.9719 0.122937C33.3358 0.0401278 32.6844 0.000364799 32.0205 0C28.9119 0 25.5173 0.871869 22.0438 2.30334V2.30334ZM11.8379 42.0887C12.7925 42.5936 13.7742 43.055 14.773 43.4709L45.8909 15.2059C45.783 14.1929 45.6217 13.2316 45.3955 12.3506C45.3429 12.1467 45.2853 11.9548 45.2304 11.7567L11.8379 42.0887V42.0887ZM2.1126 33.6498C2.63622 34.4812 3.2426 35.2841 3.92373 36.0534L40.3305 2.98369C39.5365 2.27124 38.6857 1.69413 37.783 1.24907L2.1126 33.6498Z" fill="#ACF709"/>
<defs>
<radialGradient id="paint0_radial_4342_4459" cx="0" cy="0" r="1" gradientUnits="userSpaceOnUse" gradientTransform="translate(46) rotate(135) scale(65.0538)">
<stop stop-color="#78FFF1"/>
<stop offset="0.2" stop-color="#D0DEFF"/>
<stop offset="0.4" stop-color="#DF97DF"/>
<stop offset="0.6" stop-color="#97EBBE"/>
<stop offset="0.8" stop-color="#F1FCAF"/>
<stop offset="1" stop-color="#C2E3F1"/>
</radialGradient>
<linearGradient id="paint1_linear_4342_4459" x1="0" y1="0" x2="56.7171" y2="21.6082" gradientUnits="userSpaceOnUse">
<stop stop-color="white"/>
<stop offset="0.25"/>
<stop offset="0.5" stop-color="white"/>
<stop offset="0.75"/>
<stop offset="1" stop-color="white"/>
</linearGradient>
<linearGradient id="paint2_linear_4342_4459" x1="0" y1="0" x2="56.7171" y2="21.6082" gradientUnits="userSpaceOnUse">
<stop stop-color="white"/>
<stop offset="0.234375"/>
<stop offset="0.489583" stop-color="white"/>
<stop offset="0.734375"/>
<stop offset="1" stop-color="white"/>
</linearGradient>
</defs>
</svg>
